<svg xmlns="http://www.w3.org/2000/svg" width="100.979" height="48.455" enable-background="new 44.814 0.331 100.979 48.455" viewBox="44.814 0.331 100.979 48.455"><path d="M65.913 25.416c0 3.163.52 3.553 2.902 3.684v1.56l-6.152 1.56h-.65c-.39-.823-.953-2.036-1.083-3.683-1.819 2.122-3.942 3.64-7.278 3.64-3.596 0-6.065-1.82-6.065-5.937v-9.79c0-3.164-.563-3.597-2.772-3.684V11.12l7.062-1.603h.996v15.554c0 2.512.953 3.51 2.989 3.51 1.993 0 3.25-.78 4.766-2.167V16.45c0-3.163-.563-3.596-2.773-3.683V11.12l7.062-1.603h.997v15.9zM92.468 26.89c0 2.47.477 2.902 2.687 3.031v1.733H84.366v-1.733c2.47-.086 2.816-.606 2.816-2.859V16.838c0-2.6-1.083-3.553-2.989-3.553-2.253 0-3.727.91-5.112 2.123v11.654c0 2.253.347 2.773 2.815 2.86v1.732h-10.96v-1.733c2.339-.129 2.859-.563 2.859-3.032V16.45c0-3.164-.563-3.597-2.903-3.684V11.12l6.369-1.733h.649c.261.563.91 2.21.997 3.856 1.906-2.08 4.115-3.813 7.494-3.813 3.51 0 6.065 2.08 6.065 6.238V26.89zM102.604 6.916c-1.819 0-3.293-1.473-3.293-3.292s1.474-3.293 3.336-3.293c1.863 0 3.293 1.473 3.293 3.293s-1.473 3.292-3.336 3.292zm-5.2 24.74v-1.734c2.34-.129 2.859-.563 2.859-3.032V16.448c0-3.163-.563-3.596-2.902-3.683V11.12l7.365-1.603h.822V26.89c0 2.47.348 2.946 2.816 3.032v1.733h-10.96zM120.928 12.852h-4.549v12.304c0 3.25.434 4.29 2.6 4.29.78 0 1.517-.174 2.47-.478l.521 1.906c-1.561.91-3.207 1.387-5.156 1.387-3.639 0-5.719-1.516-5.719-6.065V12.852h-2.6V10.99l2.903-1.083c.304-1.993.953-4.203 1.992-5.849l3.38-.52c-.217 1.56-.391 4.203-.391 6.412h5.199l-.65 2.903zM125.865 37.114c3.596-.737 6.325-1.69 7.755-5.676l-2.079.217c-.563-2.253-1.17-4.289-2.426-7.755l-3.38-9.27c-.78-2.167-1.343-2.687-2.989-2.904V9.95h10.787v1.776c-2.035.087-2.686.434-2.686 1.256 0 .26.174.65.303 1.083l3.033 9.012c.736 2.123 1.04 3.9 1.17 4.636h.174c.086-.52.476-2.166 1.082-4.073l2.989-9.575c.13-.39.217-.693.261-.953.086-.997-.564-1.3-2.73-1.387V9.95h8.665v1.776c-1.733.217-2.296.606-3.075 2.816l-6.195 17.373c-1.82 5.155-4.246 8.015-8.969 8.84l-1.69-3.64zM54.125 47.492c-.789.852-1.846 1.294-2.999 1.294-1.105 0-2.115-.41-2.872-1.168-1.057-1.058-1.057-2.162-1.057-4.546 0-2.383 0-3.487 1.057-4.545.757-.757 1.752-1.168 2.872-1.168 2.146 0 3.598 1.39 3.93 3.362h-1.199c-.316-1.42-1.326-2.288-2.73-2.288-.742 0-1.452.3-1.941.805-.71.726-.789 1.483-.789 3.834 0 2.353.079 3.126.789 3.852.489.505 1.199.79 1.941.79.821 0 1.61-.332 2.131-.964.458-.552.631-1.168.631-2.036v-.853h-2.762v-1.057h3.961v1.783c0 1.296-.268 2.163-.963 2.905M68.077 38.527h-2.999v4.12h2.999c1.31 0 2.241-.679 2.241-2.052s-.931-2.068-2.241-2.068zm2.257 10.164l-2.557-4.987h-2.699v4.987h-1.199V37.455h4.309c1.957 0 3.33 1.184 3.33 3.124 0 1.642-.994 2.715-2.446 3.015l2.667 5.098h-1.405z"/><g transform="translate(79.787 37.198)"><defs><filter id="a" width="7.858" height="11.427" x=".017" y=".161" filterUnits="userSpaceOnUse"><feColorMatrix values="1 0 0 0 0 0 1 0 0 0 0 0 1 0 0 0 0 0 1 0"/></filter></defs><mask id="b" width="7.858" height="11.427" x=".017" y=".161" maskUnits="userSpaceOnUse"><g filter="url(#a)"><path fill="#FFFFFF" d="M.017.161h7.858v11.427H.017z"/></g></mask><path d="M5.887 2.04a2.711 2.711 0 00-1.94-.805c-.742 0-1.452.299-1.941.805-.71.726-.788 1.482-.788 3.835 0 2.352.078 3.108.788 3.835a2.718 2.718 0 001.941.805c.741 0 1.452-.3 1.94-.805.711-.727.789-1.483.789-3.835 0-2.353-.078-3.109-.789-3.835m.932 8.38c-.758.758-1.752 1.168-2.872 1.168s-2.115-.41-2.872-1.168C.017 9.362.017 8.258.017 5.875c0-2.384 0-3.488 1.058-4.546C1.832.571 2.827.161 3.947.161s2.114.41 2.872 1.168c1.057 1.058 1.057 2.162 1.057 4.546-.001 2.383-.001 3.487-1.057 4.545" mask="url(#b)"/></g><path d="M100.242 48.786c-2.273 0-3.914-1.563-3.914-3.804v-7.527h1.199v7.433c0 1.704 1.073 2.825 2.715 2.825 1.641 0 2.729-1.12 2.729-2.825v-7.433h1.199v7.527c.001 2.241-1.656 3.804-3.928 3.804M117.334 38.527h-2.873v4.467h2.873c1.404 0 2.383-.758 2.383-2.24s-.979-2.227-2.383-2.227m.11 5.54h-2.983v4.624h-1.199V37.455h4.183c2.052 0 3.472 1.277 3.472 3.298s-1.421 3.313-3.473 3.313"/></svg>